<svg width="20" height="20" viewBox="0 0 20 20" fill="none" xmlns="http://www.w3.org/2000/svg">
<g clip-path="url(#clip0_2778_11410)">
<path d="M10.0002 3.2C10.6629 3.2 11.2002 2.66274 11.2002 2C11.2002 1.33726 10.0002 0 10.0002 0C10.0002 0 8.8002 1.33726 8.8002 2C8.8002 2.66274 9.33748 3.2 10.0002 3.2ZM10.0002 3.2V5.6M4.4002 9.6L4.81691 11.6637C5.23645 13.7414 5.44623 14.7803 6.15706 15.3902C6.86789 16 7.86906 16 9.8714 16H10.129C12.1313 16 13.1325 16 13.8433 15.3902C14.5542 14.7803 14.764 13.7414 15.1835 11.6637L15.6002 9.6M14.5336 9.6C15.7854 9.6 16.8002 8.70456 16.8002 7.6C16.8002 6.49544 15.7854 5.6 14.5336 5.6H5.46686C4.21502 5.6 3.2002 6.49544 3.2002 7.6C3.2002 8.70456 4.21502 9.6 5.46686 9.6C6.56346 9.6 7.52352 8.91288 7.73353 8C7.94355 8.91288 8.90364 9.6 10.0002 9.6C11.0968 9.6 12.0568 8.91288 12.2668 8C12.4769 8.91288 13.4369 9.6 14.5336 9.6Z" stroke="#BBA0F8" stroke-linejoin="round"/>
</g>
<defs>
<clipPath id="clip0_2778_11410">
<rect width="20" height="20" fill="white"/>
</clipPath>
</defs>
</svg>
