<svg width="30" height="30" viewBox="0 0 30 30" fill="none" xmlns="http://www.w3.org/2000/svg">
<path d="M14.999 3.125C16.8479 3.125 18.63 3.16374 20.3037 3.23535C23.354 3.36585 24.8794 3.43107 26.0859 4.64648C27.2926 5.86223 27.3456 7.34591 27.4502 10.3125C27.4822 11.2206 27.499 12.1615 27.499 13.125C27.499 14.0885 27.4822 15.0294 27.4502 15.9375C27.3456 18.9041 27.2926 20.3877 26.0859 21.6035C24.8794 22.8189 23.3541 22.8842 20.3037 23.0146C19.3864 23.0539 18.4365 23.0831 17.4609 23.1016C16.5346 23.1191 16.0711 23.1282 15.6641 23.2832C15.2571 23.4382 14.9145 23.7321 14.2295 24.3193L11.5049 26.6553C11.3395 26.7969 11.1289 26.875 10.9111 26.875C10.4074 26.8748 9.99917 26.4666 9.99902 25.9629V23.0273C9.89707 23.0232 9.79551 23.019 9.69434 23.0146C6.64371 22.8841 5.11786 22.8194 3.91113 21.6035C2.7045 20.3878 2.6525 18.9041 2.54785 15.9375C2.51581 15.0294 2.49902 14.0885 2.49902 13.125C2.49902 12.1615 2.51581 11.2206 2.54785 10.3125C2.6525 7.34597 2.70453 5.86222 3.91113 4.64648C5.11786 3.43068 6.64371 3.36586 9.69434 3.23535C11.368 3.16374 13.1502 3.125 14.999 3.125ZM17.3994 9.60156C16.6794 9.60156 15.959 9.84868 14.999 10.8369C14.0392 9.84891 13.3195 9.60165 12.5996 9.60156C11.2102 9.60156 10.1993 10.7506 10.1992 12.168C10.1992 15.0366 14.999 18.002 14.999 18.002C14.999 18.002 19.7988 15.0366 19.7988 12.168C19.7987 10.7506 18.7887 9.60167 17.3994 9.60156Z" fill="white"/>
</svg>
