<svg width="22" height="21" viewBox="0 0 22 21" fill="none" xmlns="http://www.w3.org/2000/svg">
<path d="M10.75 0C11.296 0 11.8246 0.19268 12.2422 0.54395L21.2256 8.10742C21.5702 8.4627 21.5963 9.0285 21.2706 9.415C20.9603 9.7827 20.4367 9.8621 20.0342 9.6289V14.2031C20.0342 15.3033 20.0343 16.2108 19.9522 16.9385C19.8773 17.6017 19.7263 18.2081 19.3848 18.7461L19.2266 18.9717C19.0708 19.1745 18.8953 19.3619 18.7032 19.5303L18.504 19.6934C17.9109 20.1477 17.2274 20.3325 16.4688 20.418C15.7446 20.4995 14.8427 20.499 13.75 20.499V15.25C13.75 13.8358 13.7499 13.1288 13.3106 12.6895C12.8712 12.2502 12.1641 12.25 10.75 12.25C9.33597 12.25 8.62879 12.2501 8.18948 12.6895C7.75026 13.1288 7.75002 13.8359 7.75002 15.25V20.499C6.65741 20.499 5.75546 20.4995 5.03127 20.418C4.36733 20.3432 3.76031 20.1927 3.2217 19.8516L2.99611 19.6934C2.79295 19.5376 2.60514 19.3619 2.43654 19.1699L2.27345 18.9717C1.8185 18.3792 1.6334 17.6963 1.54787 16.9385C1.46576 16.2108 1.46582 15.3033 1.46584 14.2031V9.6289C1.06334 9.8621 0.539733 9.7827 0.229513 9.415C-0.117947 9.0028 -0.0648166 8.3864 0.347673 8.03906L9.25877 0.54395L9.41997 0.41992C9.80827 0.14775 10.2724 0 10.75 0Z" fill="#7742F0"/>
</svg>
