<svg width="76" height="76" viewBox="0 0 76 76" fill="none" xmlns="http://www.w3.org/2000/svg">
<path d="M43.0115 1.09793C44.1036 0.804534 44.6496 0.657838 45.1332 0.560377C52.1283 -0.849308 59.1721 2.70243 62.2718 9.20232C62.4861 9.65171 62.6992 10.1812 63.1253 11.2401C63.2679 11.5946 63.3393 11.7719 63.4135 11.9445C64.4535 14.3631 66.0729 16.4797 68.1251 18.1026C68.2715 18.2184 68.4231 18.3325 68.7264 18.5608C69.6321 19.2426 70.085 19.5835 70.461 19.9057C75.9002 24.5662 77.5414 32.3658 74.4543 38.8832C74.2409 39.3338 73.9649 39.8334 73.4128 40.8327C73.228 41.1673 73.1356 41.3346 73.0486 41.5012C71.8293 43.8366 71.2036 46.4421 71.2279 49.082C71.2297 49.2703 71.2359 49.4618 71.2484 49.8447C71.2858 50.9882 71.3045 51.56 71.2898 52.0593C71.0772 59.2805 66.0799 65.4547 59.1306 67.0819C58.6502 67.1944 58.093 67.288 56.9785 67.4751C56.6054 67.5378 56.4188 67.5691 56.2362 67.6043C53.6757 68.0978 51.276 69.2303 49.2542 70.8993C49.1099 71.0184 48.9661 71.143 48.6784 71.3921C47.8193 72.1364 47.3897 72.5085 46.9953 72.8088C41.2911 77.1531 33.4185 77.0525 27.8399 72.5642C27.4542 72.2539 27.0354 71.871 26.1977 71.1051C25.9173 70.8486 25.7771 70.7204 25.6362 70.5977C23.6627 68.8777 21.296 67.6843 18.7505 67.1256C18.5689 67.0858 18.3833 67.0497 18.0121 66.9775C16.9034 66.762 16.349 66.6542 15.872 66.5295C8.97148 64.7254 4.1517 58.4259 4.14467 51.2018C4.14419 50.7024 4.17913 50.1313 4.24901 48.9891C4.2724 48.6067 4.2841 48.4155 4.2912 48.2272C4.39067 45.5889 3.83925 42.9683 2.68686 40.6027C2.60463 40.4339 2.51701 40.2643 2.34178 39.9251C1.81841 38.9121 1.55672 38.4056 1.35618 37.9498C-1.54437 31.3559 0.318121 23.6011 5.88791 19.0811C6.27299 18.7686 6.73539 18.4394 7.66019 17.781C7.96982 17.5605 8.12464 17.4503 8.27431 17.3383C10.3719 15.7684 12.0509 13.694 13.1594 11.3027C13.2385 11.1321 13.3149 10.9567 13.4676 10.606C13.9236 9.55831 14.1517 9.03449 14.3787 8.59074C17.6622 2.17236 24.8045 -1.19822 31.7569 0.389565C32.2376 0.49934 32.7793 0.659927 33.8626 0.981099C34.2253 1.08863 34.4067 1.1424 34.5862 1.19097C37.1024 1.87164 39.7475 1.90541 42.2822 1.28924C42.463 1.24528 42.6459 1.19616 43.0115 1.09793Z" fill="white"/>
</svg>
