<svg width="106" height="90" viewBox="0 0 106 90" fill="none" xmlns="http://www.w3.org/2000/svg">
<path fill-rule="evenodd" clip-rule="evenodd" d="M44.9717 90H44C44.3238 90.0086 44.6478 90.0086 44.9717 90Z" fill="#DDD0FB"/>
<path d="M58.1278 0.331147L106 0V90H44C40.0847 89.8959 36.2016 88.5327 32.9683 85.9313C32.5117 85.5639 32.0158 85.1105 31.0242 84.2039C30.6934 83.9014 30.5251 83.7476 30.3587 83.6025C28.0216 81.5657 25.219 80.1525 22.2046 79.4909C21.9895 79.4437 21.7697 79.401 21.3301 79.3155C20.0172 79.0603 19.3607 78.9326 18.7957 78.7849C10.6241 76.6485 4.91648 69.1886 4.90817 60.6338C4.9076 60.0423 4.94897 59.366 5.03172 58.0134C5.05943 57.5606 5.07328 57.3341 5.08168 57.1112C5.19948 53.9869 4.54648 50.8836 3.18181 48.0821C3.08443 47.8822 2.98067 47.6814 2.77316 47.2798C2.15348 46.0804 1.84346 45.4803 1.60601 44.9405C-1.82885 37.1319 0.376722 27.9486 6.97253 22.596C7.42854 22.226 7.97612 21.8361 9.07127 21.0564C9.43732 20.7958 9.62144 20.6647 9.79853 20.5322C12.2825 18.6731 14.2709 16.2165 15.5835 13.3848C15.6772 13.1828 15.7676 12.9751 15.9484 12.5597C16.4885 11.3191 16.7585 10.6987 17.0274 10.1732C20.9158 2.57253 29.3737 -1.41895 37.6069 0.461327C38.1761 0.591319 38.8175 0.781478 40.1003 1.16178C40.5298 1.28913 40.7447 1.35284 40.9573 1.41036C43.937 2.21641 47.0695 2.25641 50.071 1.52674C50.2851 1.47468 50.5016 1.41653 50.9344 1.30025C52.2277 0.952806 52.8745 0.779019 53.4473 0.663604C55.0161 0.347445 56.587 0.242025 58.1278 0.331147Z" fill="#DDD0FB"/>
</svg>
