<svg preserveAspectRatio="none" width="100%" height="100%" overflow="visible" style="display: block;" viewBox="0 0 20 20" fill="none" xmlns="http://www.w3.org/2000/svg">
<g id="Frame">
<path id="Vector" d="M1.66667 7.50081C3.29277 7.50081 4.75402 6.17171 4.94084 4.79595M15.4171 4.58415C15.4171 6.28385 16.8879 7.89164 18.3333 7.89164M18.3333 12.5008C16.7507 12.5008 15.2167 13.5927 15.085 15.0827M5.00041 15.4142C5.00041 13.5732 3.50802 12.0809 1.66707 12.0809M12.0833 10.0008C12.0833 11.1514 11.1506 12.0842 9.99998 12.0842C8.8494 12.0842 7.91667 11.1514 7.91667 10.0008C7.91667 8.85025 8.8494 7.91748 9.99998 7.91748C11.1506 7.91748 12.0833 8.85025 12.0833 10.0008ZM13.3333 4.16748C15.3995 4.16748 16.8252 4.48765 17.6107 4.73108C18.063 4.87124 18.3333 5.29989 18.3333 5.77336V13.9027C18.3333 14.832 17.3099 15.5312 16.3968 15.3587C15.6134 15.2108 14.5922 15.092 13.3333 15.092C9.37425 15.092 8.42467 16.5967 2.62067 15.3168C2.06054 15.1933 1.66667 14.6896 1.66667 14.116V5.76845C1.66667 4.95523 2.43399 4.3622 3.23165 4.52048C8.49725 5.56536 9.51742 4.16748 13.3333 4.16748Z" stroke="var(--stroke-0, #7742F0)" stroke-linecap="round" stroke-linejoin="round"/>
</g>
</svg>
