<svg preserveAspectRatio="none" width="100%" height="100%" overflow="visible" style="display: block;" viewBox="0 0 20 20" fill="none" xmlns="http://www.w3.org/2000/svg">
<g id="Frame">
<path id="Vector" d="M13.3346 1.66699V5.00033M6.66797 1.66699V5.00033M2.5 8.33301H17.5M10.1061 11.6663H10.002M10.1061 14.9997H10.002M6.35547 11.6663H6.2513M6.35547 14.9997H6.2513M13.8555 11.6663H13.7513M10.8333 3.33301H9.16667C6.02397 3.33301 4.45262 3.33301 3.47631 4.30932C2.5 5.28563 2.5 6.85697 2.5 9.99967V11.6663C2.5 14.809 2.5 16.3804 3.47631 17.3567C4.45262 18.333 6.02397 18.333 9.16667 18.333H10.8333C13.976 18.333 15.5474 18.333 16.5237 17.3567C17.5 16.3804 17.5 14.809 17.5 11.6663V9.99967C17.5 6.85697 17.5 5.28563 16.5237 4.30932C15.5474 3.33301 13.976 3.33301 10.8333 3.33301ZM10.2103 11.6663C10.2103 11.7814 10.1171 11.8747 10.002 11.8747C9.88697 11.8747 9.79364 11.7814 9.79364 11.6663C9.79364 11.5513 9.88697 11.458 10.002 11.458C10.1171 11.458 10.2103 11.5513 10.2103 11.6663ZM10.2103 14.9997C10.2103 15.1148 10.1171 15.208 10.002 15.208C9.88697 15.208 9.79364 15.1148 9.79364 14.9997C9.79364 14.8846 9.88697 14.7913 10.002 14.7913C10.1171 14.7913 10.2103 14.8846 10.2103 14.9997ZM6.45964 11.6663C6.45964 11.7814 6.36636 11.8747 6.2513 11.8747C6.13624 11.8747 6.04297 11.7814 6.04297 11.6663C6.04297 11.5513 6.13624 11.458 6.2513 11.458C6.36636 11.458 6.45964 11.5513 6.45964 11.6663ZM6.45964 14.9997C6.45964 15.1148 6.36636 15.208 6.2513 15.208C6.13624 15.208 6.04297 15.1148 6.04297 14.9997C6.04297 14.8846 6.13624 14.7913 6.2513 14.7913C6.36636 14.7913 6.45964 14.8846 6.45964 14.9997ZM13.9596 11.6663C13.9596 11.7814 13.8664 11.8747 13.7513 11.8747C13.6362 11.8747 13.543 11.7814 13.543 11.6663C13.543 11.5513 13.6362 11.458 13.7513 11.458C13.8664 11.458 13.9596 11.5513 13.9596 11.6663Z" stroke="var(--stroke-0, #7742F0)" stroke-linecap="round" stroke-linejoin="round"/>
</g>
</svg>
