<svg preserveAspectRatio="none" width="100%" height="100%" overflow="visible" style="display: block;" viewBox="0 0 20 20" fill="none" xmlns="http://www.w3.org/2000/svg">
<g id="Frame">
<path id="Vector" d="M16.9573 10.7778C16.9855 10.5224 17 10.2629 17 10C17 6.13401 13.866 3 10 3C7.80101 3 5.83886 4.01397 4.55556 5.59985M3.04272 9.22222C3.01449 9.47757 3 9.73711 3 10C3 13.866 6.13401 17 10 17C12.199 17 14.1611 15.986 15.4444 14.4001M6.88889 6.11111H6.11111C5.01117 6.11111 4.4612 6.11111 4.11949 5.7694C3.77778 5.42769 3.77778 4.87772 3.77778 3.77778V3M13.1111 13.8889H13.8889C14.9888 13.8889 15.5388 13.8889 15.8805 14.2306C16.2222 14.5723 16.2222 15.1223 16.2222 16.2222V17" stroke="var(--stroke-0, #7742F0)" stroke-linecap="round" stroke-linejoin="round"/>
</g>
</svg>
