<svg width="256" height="256" viewBox="0 0 256 256" fill="none" xmlns="http://www.w3.org/2000/svg">
<rect width="256" height="256" rx="16" fill="white"/>
<rect x="18" y="18" width="220" height="220" rx="41.25" fill="white"/>
<path d="M57.5884 170.673C53.8675 170.673 50.4883 169.971 47.4509 168.566C44.4514 167.161 42.0784 165.13 40.3318 162.472C38.5853 159.776 37.712 156.511 37.712 152.676C37.712 146.221 40.123 141.324 44.945 137.982C49.7669 134.603 57.3795 132.857 67.7828 132.743L75.1866 132.629V129.098C75.1866 126.402 74.3893 124.333 72.7946 122.89C71.2379 121.409 68.789 120.688 65.4478 120.726C63.0558 120.764 60.7587 121.333 58.5565 122.434C56.3924 123.536 54.8926 125.453 54.0573 128.187H40.2179C40.4457 123.934 41.6797 120.441 43.9198 117.707C46.1979 114.936 49.2544 112.885 53.0891 111.557C56.9239 110.19 61.3092 109.506 66.2451 109.506C72.2441 109.506 77.066 110.266 80.711 111.784C84.3559 113.265 86.9947 115.41 88.6273 118.22C90.2979 120.992 91.1332 124.295 91.1332 128.13V169.534H77.2369L75.87 159.396C73.8577 163.649 71.3328 166.591 68.2954 168.224C65.2959 169.857 61.7269 170.673 57.5884 170.673ZM63.2266 159.738C64.7074 159.738 66.1502 159.472 67.555 158.941C68.9978 158.371 70.2887 157.631 71.4277 156.72C72.5668 155.77 73.459 154.707 74.1045 153.53C74.7879 152.353 75.1486 151.138 75.1866 149.885V141.172L69.2066 141.286C66.4349 141.324 63.8531 141.665 61.4611 142.311C59.0691 142.918 57.1327 143.924 55.652 145.329C54.2092 146.734 53.4878 148.632 53.4878 151.024C53.4878 153.758 54.418 155.903 56.2785 157.46C58.1769 158.979 60.4929 159.738 63.2266 159.738Z" fill="url(#paint0_linear_421_729)"/>
<path d="M100.235 169.534V110.645H116.125V169.534H100.235Z" fill="url(#paint1_linear_421_729)"/>
<path d="M126.209 169.534V110.645H142.212V124.599C143.161 121.599 144.49 118.979 146.199 116.739C147.945 114.461 150.053 112.696 152.521 111.443C154.989 110.152 157.779 109.506 160.893 109.506C161.424 109.506 161.918 109.544 162.373 109.62C162.867 109.658 163.228 109.734 163.455 109.848V125.681C163.114 125.529 162.696 125.434 162.202 125.396C161.747 125.358 161.329 125.32 160.95 125.282C157.684 125.016 154.894 125.111 152.578 125.567C150.261 126.022 148.382 126.801 146.939 127.902C145.496 129.003 144.452 130.351 143.807 131.945C143.161 133.54 142.839 135.325 142.839 137.299V169.534H126.209Z" fill="url(#paint2_linear_421_729)"/>
<path d="M184.743 170.673C181.022 170.673 177.643 169.971 174.606 168.566C171.606 167.161 169.233 165.13 167.487 162.472C165.74 159.776 164.867 156.511 164.867 152.676C164.867 146.221 167.278 141.324 172.1 137.982C176.922 134.603 184.534 132.857 194.938 132.743L202.341 132.629V129.098C202.341 126.402 201.544 124.333 199.949 122.89C198.393 121.409 195.944 120.688 192.602 120.726C190.21 120.764 187.913 121.333 185.711 122.434C183.547 123.536 182.047 125.453 181.212 128.187H167.373C167.6 123.934 168.834 120.441 171.075 117.707C173.353 114.936 176.409 112.885 180.244 111.557C184.079 110.19 188.464 109.506 193.4 109.506C199.399 109.506 204.221 110.266 207.866 111.784C211.511 113.265 214.149 115.41 215.782 118.22C217.453 120.992 218.288 124.295 218.288 128.13V169.534H204.392L203.025 159.396C201.012 163.649 198.488 166.591 195.45 168.224C192.451 169.857 188.882 170.673 184.743 170.673ZM190.381 159.738C191.862 159.738 193.305 159.472 194.71 158.941C196.152 158.371 197.443 157.631 198.582 156.72C199.722 155.77 200.614 154.707 201.259 153.53C201.943 152.353 202.303 151.138 202.341 149.885V141.172L196.361 141.286C193.59 141.324 191.008 141.665 188.616 142.311C186.224 142.918 184.287 143.924 182.807 145.329C181.364 146.734 180.643 148.632 180.643 151.024C180.643 153.758 181.573 155.903 183.433 157.46C185.332 158.979 187.648 159.738 190.381 159.738Z" fill="url(#paint3_linear_421_729)"/>
<path d="M121.009 90.7827C121.009 87.7706 118.212 85.3281 114.765 85.3281C112.185 85.3281 109.971 86.693 109.019 88.6409C108.066 86.693 105.852 85.3281 103.274 85.3281C99.8238 85.3281 97.0288 87.7706 97.0288 90.7827C97.0288 99.5342 109.019 105.328 109.019 105.328C109.019 105.328 121.009 99.5342 121.009 90.7827Z" fill="url(#paint4_linear_421_729)"/>
<defs>
<linearGradient id="paint0_linear_421_729" x1="37.712" y1="85.3281" x2="167.313" y2="36.2001" gradientUnits="userSpaceOnUse">
<stop stop-color="#CB7BF5"/>
<stop offset="1" stop-color="#7742F0"/>
</linearGradient>
<linearGradient id="paint1_linear_421_729" x1="37.712" y1="85.3281" x2="167.313" y2="36.2001" gradientUnits="userSpaceOnUse">
<stop stop-color="#CB7BF5"/>
<stop offset="1" stop-color="#7742F0"/>
</linearGradient>
<linearGradient id="paint2_linear_421_729" x1="37.712" y1="85.3281" x2="167.313" y2="36.2001" gradientUnits="userSpaceOnUse">
<stop stop-color="#CB7BF5"/>
<stop offset="1" stop-color="#7742F0"/>
</linearGradient>
<linearGradient id="paint3_linear_421_729" x1="37.712" y1="85.3281" x2="167.313" y2="36.2001" gradientUnits="userSpaceOnUse">
<stop stop-color="#CB7BF5"/>
<stop offset="1" stop-color="#7742F0"/>
</linearGradient>
<linearGradient id="paint4_linear_421_729" x1="37.712" y1="85.3281" x2="167.313" y2="36.2001" gradientUnits="userSpaceOnUse">
<stop stop-color="#CB7BF5"/>
<stop offset="1" stop-color="#7742F0"/>
</linearGradient>
</defs>
</svg>
