<svg width="20" height="20" viewBox="0 0 20 20" fill="none" xmlns="http://www.w3.org/2000/svg">
<path d="M2.5 5.83203H5M5 5.83203C5 5.05546 5 4.66718 5.12687 4.36089C5.29602 3.95251 5.62048 3.62806 6.02886 3.4589C6.33515 3.33203 6.72343 3.33203 7.5 3.33203C8.27657 3.33203 8.66483 3.33203 8.97117 3.4589C9.3795 3.62806 9.704 3.95251 9.87317 4.36089C10 4.66718 10 5.05546 10 5.83203C10 6.6086 10 6.99688 9.87317 7.30317C9.704 7.71155 9.3795 8.03601 8.97117 8.20516C8.66483 8.33203 8.27657 8.33203 7.5 8.33203C6.72343 8.33203 6.33515 8.33203 6.02886 8.20516C5.62048 8.03601 5.29602 7.71155 5.12687 7.30317C5 6.99688 5 6.6086 5 5.83203ZM2.5 14.168H7.5M15 14.168H17.5M15 14.168C15 13.3914 15 13.0031 14.8732 12.6968C14.704 12.2885 14.3795 11.964 13.9712 11.7948C13.6648 11.668 13.2766 11.668 12.5 11.668C11.7234 11.668 11.3352 11.668 11.0288 11.7948C10.6205 11.964 10.296 12.2885 10.1268 12.6968C10 13.0031 10 13.3914 10 14.168C10 14.9446 10 15.3328 10.1268 15.6391C10.296 16.0475 10.6205 16.372 11.0288 16.5411C11.3352 16.668 11.7234 16.668 12.5 16.668C13.2766 16.668 13.6648 16.668 13.9712 16.5411C14.3795 16.372 14.704 16.0475 14.8732 15.6391C15 15.3328 15 14.9446 15 14.168ZM12.5 5.83203H17.5" stroke="black" stroke-width="1.5" stroke-linecap="round" stroke-linejoin="round"/>
</svg>
