<svg width="24" height="24" viewBox="0 0 24 24" fill="none" xmlns="http://www.w3.org/2000/svg">
<path d="M18.2914 18.3H18.3H18.2914ZM18.2914 18.3C17.731 18.8557 16.7154 18.7173 16.0031 18.7173C15.1288 18.7173 14.7078 18.8883 14.0839 19.5123C13.5526 20.0437 12.8403 21 12 21C11.1597 21 10.4474 20.0437 9.91611 19.5123C9.29215 18.8883 8.87114 18.7173 7.99685 18.7173C7.28461 18.7173 6.26896 18.8557 5.70854 18.3C5.14363 17.7398 5.28265 16.72 5.28265 16.0031C5.28265 15.0973 5.08454 14.6807 4.43944 14.0356C3.47983 13.076 3.00002 12.5962 3 12C3.00001 11.4037 3.47981 10.924 4.43941 9.96435C5.01528 9.38849 5.28265 8.81785 5.28265 7.99685C5.28265 7.28458 5.14424 6.26893 5.7 5.7085C6.26019 5.1436 7.28004 5.28263 7.99687 5.28263C8.81784 5.28263 9.38849 5.01528 9.96433 4.43943C10.924 3.47981 11.4037 3 12 3C12.5962 3 13.076 3.47981 14.0356 4.43943C14.6113 5.01516 15.182 5.28263 16.0031 5.28263C16.7154 5.28263 17.7311 5.14422 18.2915 5.7C18.8564 6.26019 18.7173 7.28003 18.7173 7.99685C18.7173 8.90272 18.9155 9.31923 19.5605 9.96435C20.5202 10.924 21 11.4037 21 12C21 12.5962 20.5202 13.076 19.5605 14.0356C18.9154 14.6807 18.7173 15.0973 18.7173 16.0031C18.7173 16.72 18.8564 17.7398 18.2914 18.3Z" fill="white"/>
<path d="M18.2914 18.3H18.3H18.2914ZM18.2914 18.3C17.731 18.8557 16.7154 18.7173 16.0031 18.7173C15.1288 18.7173 14.7078 18.8883 14.0839 19.5123C13.5526 20.0437 12.8403 21 12 21C11.1597 21 10.4474 20.0437 9.91611 19.5123C9.29215 18.8883 8.87114 18.7173 7.99685 18.7173C7.28461 18.7173 6.26896 18.8557 5.70854 18.3C5.14363 17.7398 5.28265 16.72 5.28265 16.0031C5.28265 15.0973 5.08454 14.6807 4.43944 14.0356C3.47983 13.076 3.00002 12.5962 3 12C3.00001 11.4037 3.47981 10.924 4.43941 9.96435C5.01528 9.38849 5.28265 8.81785 5.28265 7.99685C5.28265 7.28458 5.14424 6.26893 5.7 5.7085C6.26019 5.1436 7.28004 5.28263 7.99687 5.28263C8.81784 5.28263 9.38849 5.01528 9.96433 4.43943C10.924 3.47981 11.4037 3 12 3C12.5962 3 13.076 3.47981 14.0356 4.43943C14.6113 5.01516 15.182 5.28263 16.0031 5.28263C16.7154 5.28263 17.7311 5.14422 18.2915 5.7C18.8564 6.26019 18.7173 7.28003 18.7173 7.99685C18.7173 8.90272 18.9155 9.31923 19.5605 9.96435C20.5202 10.924 21 11.4037 21 12C21 12.5962 20.5202 13.076 19.5605 14.0356C18.9154 14.6807 18.7173 15.0973 18.7173 16.0031C18.7173 16.72 18.8564 17.7398 18.2914 18.3Z" fill="white"/>
<path d="M18.2914 18.3H18.3M18.2914 18.3C17.731 18.8557 16.7154 18.7173 16.0031 18.7173C15.1289 18.7173 14.7078 18.8883 14.0839 19.5123C13.5526 20.0437 12.8403 21 12 21C11.1597 21 10.4474 20.0437 9.91611 19.5123C9.29215 18.8883 8.87114 18.7173 7.99685 18.7173C7.28461 18.7173 6.26896 18.8557 5.70854 18.3C5.14363 17.7398 5.28265 16.72 5.28265 16.0031C5.28265 15.0973 5.08454 14.6807 4.43944 14.0356C3.47983 13.076 3.00002 12.5962 3 12C3.00001 11.4037 3.47981 10.924 4.43941 9.96435C5.01528 9.38849 5.28265 8.81785 5.28265 7.99685C5.28265 7.28458 5.14424 6.26893 5.7 5.7085C6.26019 5.1436 7.28004 5.28263 7.99687 5.28263C8.81784 5.28263 9.38849 5.01528 9.96433 4.43943C10.924 3.47981 11.4037 3 12 3C12.5962 3 13.076 3.47981 14.0356 4.43943C14.6113 5.01516 15.182 5.28263 16.0031 5.28263C16.7154 5.28263 17.7311 5.14422 18.2915 5.7C18.8564 6.26019 18.7173 7.28003 18.7173 7.99685C18.7173 8.90272 18.9155 9.31923 19.5605 9.96435C20.5202 10.924 21 11.4037 21 12C21 12.5962 20.5202 13.076 19.5605 14.0356C18.9154 14.6807 18.7173 15.0973 18.7173 16.0031C18.7173 16.72 18.8564 17.7398 18.2914 18.3Z" stroke="#7742F0" stroke-width="1.35"/>
<path d="M9.3 12.8036C9.3 12.8036 10.38 13.3902 10.92 14.25C10.92 14.25 12.54 10.875 14.7 9.75" stroke="#7742F0" stroke-width="1.35"/>
</svg>
