<svg width="24" height="24" viewBox="0 0 24 24" fill="none" xmlns="http://www.w3.org/2000/svg">
<path d="M12 1.75C12.546 1.75 13.0746 1.94268 13.4922 2.29395L22.4756 9.85742C22.8202 10.2127 22.8463 10.7785 22.5206 11.165C22.2103 11.5327 21.6867 11.6121 21.2842 11.3789V15.9531C21.2842 17.0533 21.2843 17.9608 21.2022 18.6885C21.1273 19.3517 20.9763 19.9581 20.6348 20.4961L20.4766 20.7217C20.3208 20.9245 20.1453 21.1119 19.9532 21.2803L19.754 21.4434C19.1609 21.8977 18.4774 22.0825 17.7188 22.168C16.9946 22.2495 16.0927 22.249 15 22.249V17C15 15.5858 14.9999 14.8788 14.5606 14.4395C14.1212 14.0002 13.4141 14 12 14C10.586 14 9.87879 14.0001 9.43948 14.4395C9.00026 14.8788 9.00002 15.5859 9.00002 17V22.249C7.90741 22.249 7.00546 22.2495 6.28127 22.168C5.61733 22.0932 5.01031 21.9427 4.4717 21.6016L4.24611 21.4434C4.04295 21.2876 3.85514 21.1119 3.68654 20.9199L3.52345 20.7217C3.0685 20.1292 2.8834 19.4463 2.79787 18.6885C2.71576 17.9608 2.71582 17.0533 2.71584 15.9531V11.3789C2.31334 11.6121 1.78973 11.5327 1.47951 11.165C1.13205 10.7528 1.18518 10.1364 1.59767 9.78906L10.5088 2.29395L10.67 2.16992C11.0583 1.89775 11.5224 1.75 12 1.75Z" fill="#7742F0"/>
</svg>
