<svg width="24" height="24" viewBox="0 0 24 24" fill="none" xmlns="http://www.w3.org/2000/svg">
<path d="M17.9999 20C17.9999 16.6863 15.3136 14 11.9999 14C8.68623 14 5.99994 16.6863 5.99994 20M15.4999 10.498C15.4999 8.56505 13.9329 6.99805 11.9999 6.99805C10.0669 6.99805 8.49988 8.56505 8.49988 10.498C8.49988 12.431 10.0669 13.998 11.9999 13.998C13.9329 13.998 15.4999 12.431 15.4999 10.498ZM22 12C22 6.47715 17.5228 2 12 2C6.47715 2 2 6.47715 2 12C2 17.5228 6.47715 22 12 22C17.5228 22 22 17.5228 22 12Z" stroke="#8C8C8C" stroke-width="1.5" stroke-linecap="round" stroke-linejoin="round"/>
</svg>
