<svg preserveAspectRatio="none" width="100%" height="100%" overflow="visible" style="display: block;" viewBox="0 0 19 19" fill="none" xmlns="http://www.w3.org/2000/svg">
<g id="Frame">
<path id="Vector" d="M9.3826 8.31289L2.87306 14.8224C2.64128 15.0542 2.52538 15.1701 2.46342 15.2951C2.34553 15.533 2.34553 15.8123 2.46342 16.0503C2.52534 16.1752 2.64165 16.2916 2.87314 16.5231C3.10497 16.7549 3.22089 16.8708 3.34593 16.9328C3.58384 17.0507 3.86317 17.0507 4.10109 16.9328C4.22613 16.8708 4.34205 16.7549 4.57389 16.5231L11.0833 10.0136L12.9602 8.13674C13.192 7.90493 13.3079 7.78902 13.3699 7.66397C13.4878 7.42606 13.4878 7.14673 13.3699 6.90882C13.3079 6.78377 13.192 6.66786 12.9602 6.43603C12.7286 6.20444 12.6124 6.08824 12.4874 6.02631C12.2495 5.90841 11.9702 5.90841 11.7323 6.02631C11.6072 6.08827 11.4913 6.20419 11.2595 6.43603L9.3826 8.31289ZM11.0833 10.0136L9.3826 8.31289M15.4375 1.97955L15.35 2.21605C15.2352 2.52615 15.1778 2.6812 15.0648 2.79431C14.9517 2.90742 14.7966 2.9648 14.4865 3.07954L14.25 3.16705L14.4865 3.25456C14.7966 3.36931 14.9517 3.42669 15.0648 3.53979C15.1778 3.65291 15.2352 3.80796 15.35 4.11806L15.4375 4.35455L15.525 4.11806C15.6398 3.80796 15.6972 3.65291 15.8102 3.53979C15.9233 3.42669 16.0784 3.36931 16.3885 3.25456L16.625 3.16705L16.3885 3.07954C16.0784 2.9648 15.9233 2.90742 15.8102 2.79431C15.6972 2.6812 15.6398 2.52615 15.525 2.21605L15.4375 1.97955ZM15.4375 9.89622L15.35 10.1327C15.2352 10.4428 15.1778 10.5979 15.0648 10.711C14.9517 10.8241 14.7966 10.8814 14.4865 10.9962L14.25 11.0837L14.4865 11.1712C14.7966 11.286 14.9517 11.3434 15.0648 11.4564C15.1778 11.5696 15.2352 11.7247 15.35 12.0347L15.4375 12.2712L15.525 12.0347C15.6398 11.7247 15.6972 11.5696 15.8102 11.4564C15.9233 11.3434 16.0784 11.286 16.3885 11.1712L16.625 11.0837L16.3885 10.9962C16.0784 10.8814 15.9233 10.8241 15.8102 10.711C15.6972 10.5979 15.6398 10.4428 15.525 10.1327L15.4375 9.89622ZM8.3125 1.97955L8.22502 2.21605C8.11023 2.52615 8.05283 2.6812 7.93978 2.79431C7.82665 2.90742 7.6716 2.9648 7.36149 3.07954L7.125 3.16705L7.36149 3.25456C7.6716 3.36931 7.82665 3.42669 7.93978 3.53979C8.05283 3.65291 8.11023 3.80796 8.22502 4.11806L8.3125 4.35455L8.39998 4.11806C8.51477 3.80796 8.57217 3.65291 8.68522 3.53979C8.79835 3.42669 8.95343 3.36931 9.26353 3.25456L9.5 3.16705L9.26353 3.07954C8.95343 2.9648 8.79835 2.90742 8.68522 2.79431C8.57217 2.6812 8.51477 2.52615 8.39998 2.21605L8.3125 1.97955Z" stroke="var(--stroke-0, white)" stroke-width="1.1875" stroke-linejoin="round"/>
</g>
</svg>
