<svg preserveAspectRatio="none" width="100%" height="100%" overflow="visible" style="display: block;" viewBox="0 0 19 19" fill="none" xmlns="http://www.w3.org/2000/svg">
<g id="Frame">
<path id="Vector" d="M1.58594 5.54134H3.85409C4.4294 5.54134 4.98114 5.25659 5.38796 4.74971C5.96894 4.02581 6.82832 3.77304 7.60779 4.09678L8.71094 4.55494M1.58594 12.6401H2.86898C3.78691 12.6401 4.24587 12.6401 4.67987 12.7624C4.70096 12.7683 4.722 12.7745 4.74296 12.7808C5.17424 12.9118 5.55611 13.1579 6.31987 13.6501C7.81461 14.6135 8.56212 15.0953 9.37649 15.0366C9.41489 15.0338 9.4532 15.0301 9.49144 15.0256C10.3019 14.9287 10.937 14.3147 12.2074 13.0866L13.4609 11.8747M17.4193 5.72647H15.4268C14.583 5.72647 13.9873 5.26796 13.382 4.65672C12.99 4.2608 12.4896 4.02745 11.9637 3.99532C11.3757 3.9594 10.6943 3.90881 10.1233 4.06568C9.48764 4.24029 9.06798 4.71851 8.62401 5.21831L7.47839 6.50806C7.01068 7.03459 7.01068 7.88828 7.47839 8.41486C7.88206 8.86927 8.51453 8.93981 8.98953 8.58324C9.33137 8.32674 9.71976 7.91243 10.1226 7.78196C10.5759 7.63511 10.8571 7.96503 11.114 8.3121L12.9515 10.7945C13.6327 11.7148 13.9735 12.175 14.4393 12.4206C14.9053 12.6663 15.4377 12.6663 16.5025 12.6663H17.4193" stroke="var(--stroke-0, white)" stroke-width="1.1875" stroke-linecap="round"/>
</g>
</svg>
