<svg preserveAspectRatio="none" width="100%" height="100%" overflow="visible" style="display: block;" viewBox="0 0 19 19" fill="none" xmlns="http://www.w3.org/2000/svg">
<g id="Frame" clip-path="url(#clip0_0_90)">
<path id="Vector" d="M9.60374 9.08477H9.49983M12.9289 9.08477H12.825M6.27891 9.08477H6.175M9.5 16.566C15.4291 16.566 17.8125 13.2166 17.8125 9.08477C17.8125 4.95299 16.2604 1.60352 9.5 1.60352C2.9604 1.60352 1.1875 4.95299 1.1875 9.08477C1.1875 10.8065 1.49535 12.3924 2.32765 13.6566C3.37602 15.3191 2.84379 16.8431 2.01875 17.3973C3.36161 17.3973 4.26488 16.9698 4.83867 16.5466C5.24609 16.246 5.76509 16.0975 6.2568 16.2181C7.17823 16.4441 8.25238 16.566 9.5 16.566ZM9.70765 9.08477C9.70765 9.19956 9.61463 9.29258 9.49983 9.29258C9.38512 9.29258 9.29202 9.19956 9.29202 9.08477C9.29202 8.96997 9.38512 8.87695 9.49983 8.87695C9.61463 8.87695 9.70765 8.96997 9.70765 9.08477ZM13.0328 9.08477C13.0328 9.19956 12.9398 9.29258 12.825 9.29258C12.7102 9.29258 12.6172 9.19956 12.6172 9.08477C12.6172 8.96997 12.7102 8.87695 12.825 8.87695C12.9398 8.87695 13.0328 8.96997 13.0328 9.08477ZM6.38281 9.08477C6.38281 9.19956 6.28977 9.29258 6.175 9.29258C6.06023 9.29258 5.96719 9.19956 5.96719 9.08477C5.96719 8.96997 6.06023 8.87695 6.175 8.87695C6.28977 8.87695 6.38281 8.96997 6.38281 9.08477Z" stroke="var(--stroke-0, white)" stroke-width="1.24688" stroke-linecap="round" stroke-linejoin="round"/>
</g>
<defs>
<clipPath id="clip0_0_90">
<rect width="19" height="19" fill="white"/>
</clipPath>
</defs>
</svg>
