<svg width="20" height="20" viewBox="0 0 20 20" fill="none" xmlns="http://www.w3.org/2000/svg">
<path d="M10.0042 9.58203C10.4645 9.58203 10.8376 9.95511 10.8376 10.4154C10.8376 10.8756 10.4645 11.2487 10.0042 11.2487C9.54398 11.2487 9.1709 10.8756 9.1709 10.4154C9.1709 9.95511 9.54398 9.58203 10.0042 9.58203Z" stroke="black" stroke-width="1.5" stroke-linecap="round" stroke-linejoin="round"/>
<path d="M15.0042 9.58203C15.4645 9.58203 15.8376 9.95511 15.8376 10.4154C15.8376 10.8756 15.4645 11.2487 15.0042 11.2487C14.544 11.2487 14.1709 10.8756 14.1709 10.4154C14.1709 9.95511 14.544 9.58203 15.0042 9.58203Z" stroke="black" stroke-width="1.5" stroke-linecap="round" stroke-linejoin="round"/>
<path d="M5.00326 9.58203C5.46349 9.58203 5.83659 9.95511 5.83659 10.4154C5.83659 10.8756 5.46349 11.2487 5.00326 11.2487C4.54301 11.2487 4.16992 10.8756 4.16992 10.4154C4.16992 9.95511 4.54301 9.58203 5.00326 9.58203Z" stroke="black" stroke-width="1.5" stroke-linecap="round" stroke-linejoin="round"/>
</svg>
