<svg width="20" height="20" viewBox="0 0 20 20" fill="none" xmlns="http://www.w3.org/2000/svg">
<path d="M7.2 3.60078C7.2 2.47721 7.2 1.91543 7.46965 1.51187C7.58638 1.33717 7.73638 1.18717 7.91109 1.07043C8.31465 0.800781 8.8764 0.800781 10 0.800781C11.1236 0.800781 11.6854 0.800781 12.0889 1.07043C12.2636 1.18717 12.4136 1.33717 12.5303 1.51187C12.8 1.91543 12.8 2.47721 12.8 3.60078M11.2 9.60078C16.0588 9.2083 17.8 6.40078 17.8 6.40078M11.2 9.60078V8.80078C11.2 8.5799 11.0209 8.40078 10.8 8.40078H9.2C8.97912 8.40078 8.8 8.5799 8.8 8.80078V9.60078M11.2 9.60078C11.2 10.2635 10.6627 10.8008 10 10.8008C9.33728 10.8008 8.8 10.2635 8.8 9.60078M2.2 6.40078C2.2 6.40078 3.94124 9.2083 8.8 9.60078M18 9.60078V9.20078C18 6.56094 18 5.24098 17.1799 4.42089C16.3598 3.60078 15.0398 3.60078 12.4 3.60078H7.6C4.96014 3.60078 3.6402 3.60078 2.8201 4.42089C2 5.24098 2 6.56094 2 9.20078V9.60078C2 12.2406 2 13.5605 2.8201 14.3807C3.6402 15.2008 4.96014 15.2008 7.6 15.2008H12.4C15.0398 15.2008 16.3598 15.2008 17.1799 14.3807C18 13.5605 18 12.2406 18 9.60078Z" stroke="#BBA0F8" stroke-linecap="round" stroke-linejoin="round"/>
</svg>
