<svg width="28" height="28" viewBox="0 0 28 28" fill="none" xmlns="http://www.w3.org/2000/svg">
<path d="M21.34 21.35H21.35H21.34ZM21.34 21.35C20.6862 21.9984 19.5013 21.8369 18.6703 21.8369C17.6503 21.8369 17.1591 22.0364 16.4312 22.7643C15.8114 23.3843 14.9804 24.5 14 24.5C13.0196 24.5 12.1886 23.3843 11.5688 22.7643C10.8408 22.0364 10.3497 21.8369 9.32966 21.8369C8.49871 21.8369 7.31379 21.9984 6.65996 21.35C6.0009 20.6965 6.16309 19.5066 6.16309 18.6703C6.16309 17.6135 5.93197 17.1275 5.17935 16.3749C4.0598 15.2554 3.50002 14.6955 3.5 14C3.50001 13.3044 4.05978 12.7446 5.17932 11.6251C5.85116 10.9532 6.16309 10.2875 6.16309 9.32966C6.16309 8.49868 6.00161 7.31375 6.65 6.65991C7.30355 6.00087 8.49338 6.16307 9.32968 6.16307C10.2875 6.16307 10.9532 5.85116 11.6251 5.17934C12.7446 4.05978 13.3044 3.5 14 3.5C14.6956 3.5 15.2554 4.05978 16.3749 5.17934C17.0466 5.85102 17.7123 6.16307 18.6703 6.16307C19.5013 6.16307 20.6863 6.00159 21.3401 6.65C21.9991 7.30355 21.8369 8.49337 21.8369 9.32966C21.8369 10.3865 22.0681 10.8724 22.8206 11.6251C23.9402 12.7446 24.5 13.3044 24.5 14C24.5 14.6955 23.9402 15.2554 22.8206 16.3749C22.068 17.1275 21.8369 17.6135 21.8369 18.6703C21.8369 19.5066 21.9991 20.6965 21.34 21.35Z" fill="white"/>
<path d="M21.34 21.35H21.35H21.34ZM21.34 21.35C20.6862 21.9984 19.5013 21.8369 18.6703 21.8369C17.6503 21.8369 17.1591 22.0364 16.4312 22.7643C15.8114 23.3843 14.9804 24.5 14 24.5C13.0196 24.5 12.1886 23.3843 11.5688 22.7643C10.8408 22.0364 10.3497 21.8369 9.32966 21.8369C8.49871 21.8369 7.31379 21.9984 6.65996 21.35C6.0009 20.6965 6.16309 19.5066 6.16309 18.6703C6.16309 17.6135 5.93197 17.1275 5.17935 16.3749C4.0598 15.2554 3.50002 14.6955 3.5 14C3.50001 13.3044 4.05978 12.7446 5.17932 11.6251C5.85116 10.9532 6.16309 10.2875 6.16309 9.32966C6.16309 8.49868 6.00161 7.31375 6.65 6.65991C7.30355 6.00087 8.49338 6.16307 9.32968 6.16307C10.2875 6.16307 10.9532 5.85116 11.6251 5.17934C12.7446 4.05978 13.3044 3.5 14 3.5C14.6956 3.5 15.2554 4.05978 16.3749 5.17934C17.0466 5.85102 17.7123 6.16307 18.6703 6.16307C19.5013 6.16307 20.6863 6.00159 21.3401 6.65C21.9991 7.30355 21.8369 8.49337 21.8369 9.32966C21.8369 10.3865 22.0681 10.8724 22.8206 11.6251C23.9402 12.7446 24.5 13.3044 24.5 14C24.5 14.6955 23.9402 15.2554 22.8206 16.3749C22.068 17.1275 21.8369 17.6135 21.8369 18.6703C21.8369 19.5066 21.9991 20.6965 21.34 21.35Z" fill="white"/>
<path d="M21.34 21.35H21.35M21.34 21.35C20.6862 21.9984 19.5013 21.8369 18.6703 21.8369C17.6503 21.8369 17.1591 22.0364 16.4312 22.7643C15.8114 23.3843 14.9804 24.5 14 24.5C13.0196 24.5 12.1886 23.3843 11.5688 22.7643C10.8408 22.0364 10.3497 21.8369 9.32966 21.8369C8.49871 21.8369 7.31379 21.9984 6.65996 21.35C6.0009 20.6965 6.16309 19.5066 6.16309 18.6703C6.16309 17.6135 5.93197 17.1275 5.17935 16.3749C4.0598 15.2554 3.50002 14.6955 3.5 14C3.50001 13.3044 4.05978 12.7446 5.17932 11.6251C5.85116 10.9532 6.16309 10.2875 6.16309 9.32966C6.16309 8.49868 6.00161 7.31375 6.65 6.65991C7.30355 6.00087 8.49338 6.16307 9.32968 6.16307C10.2875 6.16307 10.9532 5.85116 11.6251 5.17934C12.7446 4.05978 13.3044 3.5 14 3.5C14.6956 3.5 15.2554 4.05978 16.3749 5.17934C17.0466 5.85102 17.7123 6.16307 18.6703 6.16307C19.5013 6.16307 20.6863 6.00159 21.3401 6.65C21.9991 7.30355 21.8369 8.49337 21.8369 9.32966C21.8369 10.3865 22.0681 10.8724 22.8206 11.6251C23.9402 12.7446 24.5 13.3044 24.5 14C24.5 14.6955 23.9402 15.2554 22.8206 16.3749C22.068 17.1275 21.8369 17.6135 21.8369 18.6703C21.8369 19.5066 21.9991 20.6965 21.34 21.35Z" stroke="#7742F0" stroke-width="1.575"/>
<path d="M10.8496 14.9375C10.8496 14.9375 12.1096 15.6219 12.7396 16.625C12.7396 16.625 14.6296 12.6875 17.1496 11.375" stroke="#7742F0" stroke-width="1.575"/>
</svg>
