<svg width="20" height="20" viewBox="0 0 20 20" fill="none" xmlns="http://www.w3.org/2000/svg">
<path d="M12.3333 9.33177C12.3333 10.6204 11.2887 11.6651 10 11.6651C8.71134 11.6651 7.66668 10.6204 7.66668 9.33177C7.66668 8.0431 8.71134 6.99844 10 6.99844C11.2887 6.99844 12.3333 8.0431 12.3333 9.33177Z" stroke="#737373"/>
<path d="M10 3.33203C13.2471 3.33203 16 6.02069 16 9.28257C16 12.5964 13.2022 14.9218 10.618 16.5032C10.4297 16.6095 10.2167 16.6654 10 16.6654C9.78333 16.6654 9.57033 16.6095 9.382 16.5032C6.8026 14.9064 4 12.6078 4 9.28257C4 6.02069 6.75296 3.33203 10 3.33203Z" stroke="#737373"/>
</svg>
