<svg width="20" height="20" viewBox="0 0 20 20" fill="none" xmlns="http://www.w3.org/2000/svg">
<path d="M4.1665 17.084H15.8332" stroke="#7742F0" stroke-width="1.25" stroke-linecap="round" stroke-linejoin="round"/>
<path d="M14.0596 14.5827H5.94009C5.08331 14.5827 4.65493 14.5827 4.33003 14.3522C4.00512 14.1217 3.86358 13.7173 3.5805 12.9087L1.7092 7.56325C1.6096 7.26872 1.68736 6.94402 1.91005 6.72448C2.19029 6.44822 2.62938 6.40535 2.95915 6.62207L3.98608 7.297C5.02266 7.97827 5.54096 8.31889 6.06496 8.19508C6.58897 8.07127 6.9 7.53469 7.52205 6.46152L9.3675 3.27778C9.49717 3.05407 9.7385 2.91602 9.99984 2.91602C10.2612 2.91602 10.5025 3.05407 10.6322 3.27778L12.4776 6.46152C13.0997 7.53469 13.4107 8.07127 13.9347 8.19508C14.4588 8.31889 14.977 7.97827 16.0136 7.297L17.0405 6.62207C17.3703 6.40535 17.8094 6.44822 18.0897 6.72448C18.3123 6.94402 18.3901 7.26872 18.2905 7.56325L16.4192 12.9087C16.1361 13.7173 15.9946 14.1217 15.6697 14.3522C15.3448 14.5827 14.9163 14.5827 14.0596 14.5827Z" stroke="#7742F0" stroke-width="1.25" stroke-linecap="round" stroke-linejoin="round"/>
</svg>
