<svg width="20" height="20" viewBox="0 0 20 20" fill="none" xmlns="http://www.w3.org/2000/svg">
<path d="M15.5907 2.91213C14.0137 2.12753 12.0841 1.66602 10 1.66602C7.91592 1.66602 5.98625 2.12753 4.4093 2.91213C3.63598 3.2969 3.24932 3.48928 2.87467 4.09417C2.5 4.69906 2.5 5.28475 2.5 6.45613V9.3636C2.5 14.0998 6.2853 16.733 8.4775 17.8608C9.08892 18.1754 9.39458 18.3327 10 18.3327C10.6054 18.3327 10.9111 18.1754 11.5224 17.8608C13.7147 16.733 17.5 14.0998 17.5 9.3636V6.45613C17.5 5.28476 17.5 4.69907 17.1253 4.09417C16.7507 3.48927 16.364 3.2969 15.5907 2.91213Z" stroke="#7742F0" stroke-width="1.25" stroke-linecap="round" stroke-linejoin="round"/>
<path d="M7.5 9.58268C7.5 9.58268 8.67325 9.7926 9.16667 11.2493C9.16667 11.2493 10.4167 8.74935 12.5 7.91602" stroke="#7742F0" stroke-width="1.25" stroke-linecap="round" stroke-linejoin="round"/>
</svg>
