<svg width="67" height="32" viewBox="0 0 67 32" fill="none" xmlns="http://www.w3.org/2000/svg">
<path d="M7.53696 31.6338C6.20062 31.6338 4.987 31.3815 3.89611 30.877C2.81885 30.3724 1.96659 29.6429 1.33933 28.6884C0.712069 27.7202 0.398438 26.5475 0.398438 25.1702C0.398438 22.8521 1.26433 21.093 2.99612 19.893C4.72791 18.6794 7.46196 18.0522 11.1983 18.0113L13.8573 17.9703V16.7022C13.8573 15.734 13.571 14.9908 12.9982 14.4727C12.4392 13.9409 11.5596 13.6818 10.3596 13.6954C9.50057 13.7091 8.67558 13.9136 7.88468 14.309C7.10742 14.7045 6.56879 15.3931 6.2688 16.3749H1.29842C1.38024 14.8477 1.82341 13.5931 2.62795 12.6113C3.44612 11.6159 4.54383 10.8795 5.92108 10.4023C7.29833 9.91138 8.8733 9.66593 10.646 9.66593C12.8005 9.66593 14.5323 9.93866 15.8414 10.4841C17.1504 11.0159 18.0982 11.7864 18.6845 12.7954C19.2845 13.7909 19.5845 14.9772 19.5845 16.3545V31.2247H14.5937L14.1028 27.5838C13.38 29.1111 12.4732 30.1679 11.3824 30.7542C10.3051 31.3406 9.0233 31.6338 7.53696 31.6338ZM9.56193 27.7066C10.0937 27.7066 10.6119 27.6111 11.1164 27.4202C11.6346 27.2157 12.0983 26.9497 12.5073 26.6225C12.9164 26.2816 13.2369 25.8998 13.4687 25.477C13.7141 25.0543 13.8437 24.618 13.8573 24.168V21.0385L11.7096 21.0794C10.7142 21.093 9.78692 21.2157 8.92785 21.4476C8.06877 21.6657 7.37333 22.0271 6.84152 22.5316C6.32334 23.0362 6.06426 23.718 6.06426 24.5771C6.06426 25.5589 6.39834 26.3293 7.06651 26.8884C7.74832 27.4338 8.58012 27.7066 9.56193 27.7066Z" fill="white"/>
<path d="M22.8533 31.2247V10.075H28.5601V31.2247H22.8533Z" fill="white"/>
<path d="M32.1817 31.2247V10.075H37.9294V15.0863C38.2703 14.009 38.7475 13.0682 39.3612 12.2636C39.9884 11.4455 40.7452 10.8114 41.6316 10.3614C42.5179 9.89775 43.5202 9.66593 44.6384 9.66593C44.8293 9.66593 45.0065 9.67957 45.1702 9.70684C45.3474 9.72048 45.477 9.74775 45.5588 9.78866V15.4749C45.4361 15.4204 45.2861 15.3863 45.1088 15.3727C44.9452 15.359 44.7952 15.3454 44.6588 15.3318C43.4861 15.2363 42.4838 15.2704 41.652 15.434C40.8202 15.5977 40.1452 15.8772 39.6271 16.2726C39.1089 16.6681 38.7339 17.1522 38.5021 17.7249C38.2703 18.2976 38.1544 18.9385 38.1544 19.6476V31.2247H32.1817Z" fill="white"/>
<path d="M53.2042 31.6338C51.8679 31.6338 50.6542 31.3815 49.5633 30.877C48.4861 30.3724 47.6338 29.6429 47.0066 28.6884C46.3793 27.7202 46.0657 26.5475 46.0657 25.1702C46.0657 22.8521 46.9316 21.093 48.6634 19.893C50.3952 18.6794 53.1292 18.0522 56.8655 18.0113L59.5246 17.9703V16.7022C59.5246 15.734 59.2382 14.9908 58.6655 14.4727C58.1064 13.9409 57.2269 13.6818 56.0269 13.6954C55.1678 13.7091 54.3428 13.9136 53.5519 14.309C52.7747 14.7045 52.236 15.3931 51.936 16.3749H46.9657C47.0475 14.8477 47.4907 13.5931 48.2952 12.6113C49.1134 11.6159 50.2111 10.8795 51.5883 10.4023C52.9656 9.91138 54.5405 9.66593 56.3132 9.66593C58.4678 9.66593 60.1995 9.93866 61.5086 10.4841C62.8177 11.0159 63.7654 11.7864 64.3517 12.7954C64.9517 13.7909 65.2517 14.9772 65.2517 16.3545V31.2247H60.2609L59.77 27.5838C59.0473 29.1111 58.1405 30.1679 57.0496 30.7542C55.9723 31.3406 54.6905 31.6338 53.2042 31.6338ZM55.2292 27.7066C55.761 27.7066 56.2792 27.6111 56.7837 27.4202C57.3019 27.2157 57.7655 26.9497 58.1746 26.6225C58.5837 26.2816 58.9041 25.8998 59.1359 25.477C59.3814 25.0543 59.5109 24.618 59.5246 24.168V21.0385L57.3769 21.0794C56.3814 21.093 55.4542 21.2157 54.5951 21.4476C53.736 21.6657 53.0406 22.0271 52.5088 22.5316C51.9906 23.0362 51.7315 23.718 51.7315 24.5771C51.7315 25.5589 52.0656 26.3293 52.7338 26.8884C53.4156 27.4338 54.2474 27.7066 55.2292 27.7066Z" fill="white"/>
<path d="M30.3142 2.94141C30.3142 1.85961 29.3099 0.982422 28.0716 0.982422C27.1453 0.982422 26.3501 1.4726 26.008 2.17218C25.6659 1.4726 24.8707 0.982422 23.9449 0.982422C22.7057 0.982422 21.7019 1.85961 21.7019 2.94141C21.7019 6.0845 26.008 8.16538 26.008 8.16538C26.008 8.16538 30.3142 6.0845 30.3142 2.94141Z" fill="white"/>
</svg>
