<svg width="116" height="56" viewBox="0 0 116 56" fill="none" xmlns="http://www.w3.org/2000/svg">
<path d="M13.1897 55.3586C10.8511 55.3586 8.72725 54.9171 6.81819 54.0342C4.93299 53.1512 3.44154 51.8746 2.34383 50.2041C1.24612 48.5098 0.697266 46.4576 0.697266 44.0474C0.697266 39.9907 2.21258 36.9123 5.24322 34.8123C8.27385 32.6885 13.0584 31.5908 19.597 31.5192L24.2503 31.4476V29.2283C24.2503 27.534 23.7492 26.2335 22.7469 25.3267C21.7685 24.396 20.2293 23.9426 18.1294 23.9665C16.626 23.9903 15.1823 24.3483 13.7982 25.0403C12.438 25.7324 11.4954 26.9375 10.9704 28.6556H2.27224C2.41542 25.9829 3.19098 23.7875 4.59891 22.0694C6.0307 20.3273 7.95169 19.0387 10.3619 18.2035C12.7721 17.3444 15.5283 16.9149 18.6305 16.9149C22.4009 16.9149 25.4315 17.3922 27.7224 18.3467C30.0133 19.2774 31.6718 20.6256 32.6979 22.3915C33.7479 24.1335 34.2729 26.2096 34.2729 28.6198V54.6427H25.5389L24.6798 48.2712C23.4151 50.9439 21.8282 52.7933 19.9191 53.8194C18.0339 54.8455 15.7908 55.3586 13.1897 55.3586ZM16.7334 48.486C17.664 48.486 18.5708 48.3189 19.4538 47.9848C20.3606 47.6269 21.1719 47.1616 21.8878 46.5889C22.6037 45.9923 23.1645 45.3241 23.5702 44.5843C23.9997 43.8446 24.2264 43.081 24.2503 42.2935V36.8168L20.4918 36.8884C18.7498 36.9123 17.1271 37.1271 15.6237 37.5327C14.1203 37.9146 12.9033 38.5469 11.9727 39.4299C11.0659 40.3128 10.6124 41.506 10.6124 43.0094C10.6124 44.7275 11.1971 46.0758 12.3664 47.0542C13.5596 48.0087 15.0152 48.486 16.7334 48.486Z" fill="url(#paint0_linear_2101_14792)"/>
<path d="M39.9933 54.6427V17.6308H49.9801V54.6427H39.9933Z" fill="url(#paint1_linear_2101_14792)"/>
<path d="M56.318 54.6427V17.6308H66.3764V26.4005C66.973 24.5153 67.8082 22.8688 68.882 21.4608C69.9798 20.0291 71.3042 18.9194 72.8553 18.1319C74.4064 17.3206 76.1603 16.9149 78.1171 16.9149C78.4512 16.9149 78.7614 16.9388 79.0478 16.9865C79.358 17.0103 79.5847 17.0581 79.7279 17.1297V27.0806C79.5131 26.9852 79.2506 26.9255 78.9404 26.9017C78.6541 26.8778 78.3916 26.8539 78.1529 26.8301C76.1007 26.663 74.3467 26.7227 72.8911 27.0091C71.4354 27.2954 70.2542 27.7846 69.3474 28.4766C68.4406 29.1687 67.7843 30.0158 67.3787 31.0181C66.973 32.0203 66.7701 33.1419 66.7701 34.3828V54.6427H56.318Z" fill="url(#paint2_linear_2101_14792)"/>
<path d="M93.1074 55.3586C90.7688 55.3586 88.6449 54.9171 86.7359 54.0342C84.8507 53.1512 83.3592 51.8746 82.2615 50.2041C81.1638 48.5098 80.6149 46.4576 80.6149 44.0474C80.6149 39.9907 82.1303 36.9123 85.1609 34.8123C88.1915 32.6885 92.9761 31.5908 99.5146 31.5192L104.168 31.4476V29.2283C104.168 27.534 103.667 26.2335 102.665 25.3267C101.686 24.396 100.147 23.9426 98.047 23.9665C96.5437 23.9903 95.0999 24.3483 93.7159 25.0403C92.3557 25.7324 91.4131 26.9375 90.8881 28.6556H82.1899C82.3331 25.9829 83.1087 23.7875 84.5166 22.0694C85.9484 20.3273 87.8694 19.0387 90.2796 18.2035C92.6897 17.3444 95.446 16.9149 98.5482 16.9149C102.319 16.9149 105.349 17.3922 107.64 18.3467C109.931 19.2774 111.589 20.6256 112.616 22.3915C113.666 24.1335 114.191 26.2096 114.191 28.6198V54.6427H105.457L104.598 48.2712C103.333 50.9439 101.746 52.7933 99.8368 53.8194C97.9516 54.8455 95.7085 55.3586 93.1074 55.3586ZM96.651 48.486C97.5817 48.486 98.4885 48.3189 99.3715 47.9848C100.278 47.6269 101.09 47.1616 101.806 46.5889C102.521 45.9923 103.082 45.3241 103.488 44.5843C103.917 43.8446 104.144 43.081 104.168 42.2935V36.8168L100.41 36.8884C98.6675 36.9123 97.0448 37.1271 95.5414 37.5327C94.038 37.9146 92.821 38.5469 91.8903 39.4299C90.9835 40.3128 90.5301 41.506 90.5301 43.0094C90.5301 44.7275 91.1148 46.0758 92.2841 47.0542C93.4772 48.0087 94.9329 48.486 96.651 48.486Z" fill="url(#paint3_linear_2101_14792)"/>
<path d="M53.0498 5.14698C53.0498 3.25383 51.2923 1.71875 49.1254 1.71875C47.5043 1.71875 46.1127 2.57657 45.514 3.80083C44.9154 2.57657 43.5238 1.71875 41.9036 1.71875C39.735 1.71875 37.9783 3.25383 37.9783 5.14698C37.9783 10.6474 45.514 14.2889 45.514 14.2889C45.514 14.2889 53.0498 10.6474 53.0498 5.14698Z" fill="url(#paint4_linear_2101_14792)"/>
<defs>
<linearGradient id="paint0_linear_2101_14792" x1="0.697266" y1="1.71875" x2="82.1525" y2="-29.1586" gradientUnits="userSpaceOnUse">
<stop stop-color="#CB7BF5"/>
<stop offset="1" stop-color="#7742F0"/>
</linearGradient>
<linearGradient id="paint1_linear_2101_14792" x1="0.697266" y1="1.71875" x2="82.1525" y2="-29.1586" gradientUnits="userSpaceOnUse">
<stop stop-color="#CB7BF5"/>
<stop offset="1" stop-color="#7742F0"/>
</linearGradient>
<linearGradient id="paint2_linear_2101_14792" x1="0.697266" y1="1.71875" x2="82.1525" y2="-29.1586" gradientUnits="userSpaceOnUse">
<stop stop-color="#CB7BF5"/>
<stop offset="1" stop-color="#7742F0"/>
</linearGradient>
<linearGradient id="paint3_linear_2101_14792" x1="0.697266" y1="1.71875" x2="82.1525" y2="-29.1586" gradientUnits="userSpaceOnUse">
<stop stop-color="#CB7BF5"/>
<stop offset="1" stop-color="#7742F0"/>
</linearGradient>
<linearGradient id="paint4_linear_2101_14792" x1="0.697266" y1="1.71875" x2="82.1525" y2="-29.1586" gradientUnits="userSpaceOnUse">
<stop stop-color="#CB7BF5"/>
<stop offset="1" stop-color="#7742F0"/>
</linearGradient>
</defs>
</svg>
