<svg width="29" height="19" viewBox="0 0 29 19" fill="none" xmlns="http://www.w3.org/2000/svg">
<path d="M0.648194 19C0.546517 19 0.444839 18.9557 0.343162 18.867C0.241484 18.7783 0.165226 18.677 0.114387 18.563C0.0508388 18.4617 0.0127097 18.392 0 18.354C0.228775 17.632 0.438484 16.9923 0.62913 16.435C0.819775 15.8903 0.997711 15.3457 1.16294 14.801C1.32816 14.269 1.48703 13.6673 1.63955 12.996C1.77936 12.312 1.92552 11.4887 2.07804 10.526C2.24326 9.55067 2.41484 8.36 2.59278 6.954C2.60549 6.82733 2.63091 6.73867 2.66904 6.688C2.70717 6.62467 2.80884 6.593 2.97407 6.593C3.32994 6.593 3.58413 6.688 3.73665 6.878C3.88917 7.068 3.96543 7.277 3.96543 7.505C3.96543 7.66967 3.93365 7.961 3.8701 8.379C3.80655 8.78433 3.71123 9.26567 3.58413 9.823C3.81291 9.41767 4.08617 9.01867 4.40391 8.626C4.72165 8.22067 5.08388 7.89133 5.49059 7.638C5.8973 7.372 6.34214 7.239 6.82511 7.239C7.39704 7.239 7.87366 7.44167 8.25495 7.847C8.63624 8.25233 8.82688 8.78433 8.82688 9.443C8.82688 9.937 8.7125 10.4627 8.48372 11.02C8.26766 11.5647 7.95627 12.084 7.54956 12.578C7.14285 13.0593 6.65988 13.452 6.10065 13.756C5.55414 14.06 4.94407 14.212 4.27046 14.212C3.91459 14.212 3.62862 14.1677 3.41255 14.079C3.19649 14.003 3.08846 13.9143 3.08846 13.813C3.08846 13.7497 3.13294 13.7117 3.22191 13.699C3.32359 13.699 3.43797 13.699 3.56507 13.699C4.09888 13.6863 4.60091 13.5597 5.07117 13.319C5.55414 13.0783 5.97356 12.7617 6.32943 12.369C6.69801 11.9637 6.98398 11.5203 7.18733 11.039C7.39069 10.5577 7.49237 10.089 7.49237 9.633C7.49237 9.22767 7.4034 8.88567 7.22546 8.607C7.06024 8.32833 6.78698 8.189 6.40569 8.189C6.08794 8.189 5.76385 8.29033 5.4334 8.493C5.11565 8.69567 4.81062 8.96167 4.5183 9.291C4.23868 9.60767 3.98449 9.937 3.75572 10.279C3.53965 10.621 3.37442 10.925 3.26004 11.191C3.03126 12.103 2.80884 12.9897 2.59278 13.851C2.37671 14.725 2.167 15.5167 1.96365 16.226C1.76029 16.9353 1.576 17.5243 1.41078 17.993C1.23284 18.4617 1.06761 18.7593 0.915098 18.886C0.83884 18.962 0.749872 19 0.648194 19Z" fill="white"/>
<path d="M10.8179 14.25C10.2587 14.25 9.85835 14.06 9.61687 13.68C9.3881 13.3 9.27371 12.8313 9.27371 12.274C9.27371 11.666 9.3881 10.944 9.61687 10.108C9.84564 9.272 10.1443 8.39167 10.5129 7.467C10.8942 6.54233 11.3073 5.643 11.7521 4.769C12.1969 3.88233 12.6418 3.08433 13.0866 2.375C13.5442 1.653 13.9572 1.07667 14.3258 0.646C14.7071 0.215333 15.0121 0 15.2409 0C15.3934 0 15.5142 0.0823334 15.6031 0.247C15.7048 0.411667 15.7811 0.608 15.8319 0.835999C15.8955 1.05133 15.9272 1.254 15.9272 1.444C15.9272 1.786 15.8383 2.23567 15.6603 2.793C15.4951 3.33767 15.2536 3.94567 14.9359 4.617C14.6308 5.28833 14.2623 5.97233 13.8301 6.669C13.4107 7.353 12.9468 8.01167 12.4384 8.645C11.93 9.26567 11.3962 9.804 10.837 10.26C10.7607 10.602 10.6972 10.9313 10.6464 11.248C10.6082 11.5647 10.5892 11.8623 10.5892 12.141C10.5892 12.6223 10.6591 12.977 10.7989 13.205C10.9514 13.433 11.1611 13.547 11.428 13.547C11.7585 13.547 12.0889 13.4013 12.4194 13.11C12.7625 12.806 13.0866 12.426 13.3917 11.97C13.6967 11.5013 13.9572 11.02 14.1733 10.526L14.5165 10.697C13.9954 11.799 13.4234 12.6667 12.8006 13.3C12.1779 13.9333 11.517 14.25 10.8179 14.25ZM11.0658 9.443C11.4979 8.987 11.9173 8.48033 12.324 7.923C12.7435 7.353 13.1247 6.764 13.4679 6.156C13.8238 5.548 14.1352 4.96533 14.4021 4.408C14.669 3.838 14.8723 3.33133 15.0121 2.888C15.1647 2.432 15.2409 2.07733 15.2409 1.824C15.2409 1.73533 15.2282 1.67833 15.2028 1.653C15.1901 1.62767 15.171 1.60867 15.1456 1.596C15.0439 1.596 14.8723 1.75433 14.6308 2.071C14.4021 2.375 14.1225 2.793 13.792 3.325C13.4743 3.857 13.1438 4.45867 12.8006 5.13C12.4702 5.80133 12.1525 6.51067 11.8474 7.258C11.5424 7.99267 11.2818 8.721 11.0658 9.443Z" fill="white"/>
<path d="M15.0171 14.25C14.5849 14.25 14.2354 14.0537 13.9685 13.661C13.7143 13.2683 13.5872 12.8187 13.5872 12.312C13.5872 11.9447 13.6444 11.5203 13.7588 11.039C13.8732 10.5577 14.0193 10.089 14.1973 9.633C14.3879 9.16433 14.5786 8.778 14.7692 8.474C14.9599 8.17 15.1314 8.018 15.284 8.018C15.3475 8.018 15.4619 8.056 15.6271 8.132C15.7923 8.208 15.9321 8.30933 16.0465 8.436C15.9067 8.65133 15.7351 8.97433 15.5318 9.405C15.3284 9.83567 15.1505 10.3043 14.998 10.811C14.8455 11.305 14.7692 11.761 14.7692 12.179C14.7692 12.2677 14.7819 12.4133 14.8073 12.616C14.8328 12.8187 14.89 13.0023 14.9789 13.167C15.0806 13.3317 15.2268 13.414 15.4174 13.414C15.6589 13.414 15.9004 13.2937 16.1419 13.053C16.3961 12.7997 16.6502 12.483 16.9044 12.103C17.1713 11.7103 17.4255 11.2923 17.667 10.849C17.9212 10.4057 18.15 9.975 18.3533 9.557C18.5567 9.139 18.7283 8.79067 18.8681 8.512C18.9571 8.52467 19.0778 8.55633 19.2303 8.607C19.3955 8.645 19.5417 8.702 19.6688 8.778C19.7959 8.84133 19.8594 8.93633 19.8594 9.063C19.8594 9.11367 19.7959 9.27833 19.6688 9.557C19.5417 9.83567 19.3955 10.1777 19.2303 10.583C19.0651 10.9757 18.9189 11.381 18.7918 11.799C18.6647 12.2043 18.6012 12.5653 18.6012 12.882C18.6012 13.0973 18.6457 13.2747 18.7346 13.414C18.8236 13.5407 18.9761 13.604 19.1922 13.604C19.4591 13.604 19.7768 13.4837 20.1454 13.243C20.5267 13.0023 20.9144 12.654 21.3084 12.198C21.7024 11.742 22.0519 11.191 22.3569 10.545L22.6238 10.735C22.3569 11.419 22.001 12.027 21.5562 12.559C21.1241 13.091 20.6602 13.5027 20.1645 13.794C19.6815 14.098 19.2049 14.25 18.7346 14.25C18.3915 14.25 18.1246 14.1803 17.9339 14.041C17.7433 13.9017 17.6098 13.718 17.5336 13.49C17.4573 13.2493 17.4128 12.996 17.4001 12.73C17.4001 12.6033 17.4065 12.4767 17.4192 12.35C17.4446 12.2233 17.47 12.0967 17.4954 11.97C17.2667 12.3627 17.0188 12.7363 16.7519 13.091C16.4977 13.433 16.2245 13.7117 15.9321 13.927C15.6398 14.1423 15.3348 14.25 15.0171 14.25Z" fill="white"/>
<path d="M23.8526 14.649C23.2425 14.649 22.7532 14.516 22.3846 14.25C22.0287 13.9967 21.7745 13.68 21.622 13.3C21.4695 12.9073 21.3932 12.5147 21.3932 12.122C21.3932 11.742 21.4441 11.4507 21.5458 11.248C21.6474 11.0453 21.7682 10.8997 21.908 10.811C22.0605 10.7097 22.2003 10.6337 22.3274 10.583C22.4672 10.5323 22.5689 10.4753 22.6324 10.412C22.9883 10.032 23.3251 9.62033 23.6429 9.177C23.9733 8.721 24.2593 8.23333 24.5008 7.714V7.505C24.5008 7.02367 24.5834 6.68167 24.7486 6.479C24.9138 6.27633 25.0918 6.175 25.2824 6.175C25.3968 6.175 25.4794 6.20667 25.5303 6.27C25.5938 6.32067 25.6319 6.384 25.6446 6.46C25.6446 6.536 25.6256 6.63733 25.5874 6.764C25.5493 6.89067 25.5303 7.05533 25.5303 7.258C25.5303 7.66333 25.6129 8.113 25.7781 8.607C25.956 9.08833 26.1276 9.60133 26.2928 10.146C26.4708 10.678 26.5597 11.2353 26.5597 11.818C26.5597 11.97 26.547 12.122 26.5216 12.274C26.5089 12.426 26.4898 12.5653 26.4644 12.692C26.8838 12.6033 27.2905 12.4007 27.6845 12.084C28.0785 11.7547 28.4535 11.2417 28.8094 10.545L29 10.735C28.7585 11.4317 28.3963 11.9763 27.9133 12.369C27.4431 12.749 26.9156 12.9897 26.331 13.091C26.1276 13.623 25.8035 14.0157 25.3587 14.269C24.9138 14.5223 24.4118 14.649 23.8526 14.649ZM23.8335 13.927C24.0242 13.927 24.2402 13.87 24.4817 13.756C24.7232 13.6547 24.9075 13.4203 25.0346 13.053C24.5135 12.9517 24.0432 12.749 23.6238 12.445C23.2044 12.1283 22.893 11.818 22.6896 11.514C22.4354 11.5267 22.3083 11.7293 22.3083 12.122C22.3083 12.5653 22.4418 12.977 22.7087 13.357C22.9756 13.737 23.3505 13.927 23.8335 13.927ZM25.149 12.673C25.1744 12.559 25.1934 12.4387 25.2062 12.312C25.2189 12.1727 25.2252 12.027 25.2252 11.875C25.2252 11.2923 25.149 10.7097 24.9964 10.127C24.8566 9.54433 24.7295 8.987 24.6152 8.455C24.3483 8.89833 24.0559 9.34167 23.7382 9.785C23.4204 10.2283 23.1154 10.5957 22.8231 10.887C23.0264 11.267 23.3251 11.628 23.7191 11.97C24.1131 12.312 24.5897 12.5463 25.149 12.673Z" fill="white"/>
</svg>
